<svg width="120" height="24" viewBox="0 0 120 24" fill="none" xmlns="http://www.w3.org/2000/svg">
<path d="M9.06145 23.1079C5.26816 22.3769 -3.39077 20.6274 1.4173 5.06384C9.6344 6.09939 16.9728 14.0644 9.06145 23.1079Z" fill="url(#paint0_linear_sofia_light)"/>
<path d="M8.91928 23.0939C5.27642 21.2223 0.78371 4.20891 17.0071 0C20.7569 7.19341 19.6212 16.5452 8.91928 23.0939Z" fill="url(#paint1_linear_sofia_light)"/>
<path d="M8.91388 23.0788C8.73534 19.8817 10.1585 9.08525 23.5699 13.1107C23.1812 20.1229 18.984 26.4182 8.91388 23.0788Z" fill="url(#paint2_linear_sofia_light)"/>
<path d="M32.5 19.5C31.3 19.5 30.3 19.3 29.5 18.9C28.7 18.5 28.1 17.9 27.7 17.1C27.3 16.3 27.1 15.4 27.1 14.4H28.9C28.9 15.1 29.1 15.7 29.4 16.2C29.7 16.7 30.1 17.1 30.6 17.3C31.1 17.5 31.7 17.6 32.5 17.6C33.3 17.6 33.9 17.5 34.4 17.2C34.9 17.0 35.3 16.6 35.6 16.1C35.9 15.6 36.0 15.0 36.0 14.3C36.0 13.7 35.9 13.2 35.6 12.8C35.3 12.4 34.9 12.1 34.4 11.9C33.9 11.7 33.3 11.5 32.6 11.3L31.2 10.9C30.0 10.6 29.1 10.1 28.5 9.4C27.9 8.7 27.6 7.8 27.6 6.7C27.6 5.8 27.8 5.0 28.3 4.4C28.8 3.8 29.4 3.3 30.2 3.0C31.0 2.7 31.9 2.5 32.9 2.5C33.9 2.5 34.8 2.7 35.6 3.0C36.4 3.3 37.0 3.8 37.4 4.5C37.8 5.2 38.0 6.0 38.0 6.9H36.2C36.1 6.1 35.8 5.5 35.2 5.1C34.6 4.7 33.8 4.5 32.9 4.5C32.2 4.5 31.6 4.6 31.1 4.8C30.6 5.0 30.2 5.3 29.9 5.7C29.6 6.1 29.5 6.5 29.5 7.0C29.5 7.5 29.6 7.9 29.9 8.2C30.2 8.5 30.5 8.8 30.9 9.0C31.3 9.2 31.8 9.3 32.3 9.4L33.7 9.8C34.2 9.9 34.7 10.1 35.1 10.3C35.5 10.5 35.9 10.8 36.2 11.2C36.5 11.6 36.7 12.0 36.8 12.5C36.9 13.0 37.0 13.6 37.0 14.2C37.0 15.1 36.8 15.9 36.3 16.6C35.8 17.3 35.1 17.8 34.2 18.2C33.3 18.6 32.2 18.8 31.0 18.8L32.5 19.5Z" fill="#6366F1"/>
<path d="M42.5 19.5C41.8 19.5 41.2 19.4 40.7 19.1C40.2 18.8 39.8 18.4 39.5 17.9C39.2 17.4 39.1 16.8 39.1 16.1C39.1 15.5 39.2 15.0 39.5 14.6C39.8 14.2 40.2 13.9 40.7 13.7C41.2 13.5 41.7 13.3 42.3 13.2C42.9 13.1 43.5 13.0 44.1 12.9C44.8 12.8 45.4 12.7 45.8 12.6C46.2 12.5 46.5 12.4 46.7 12.2C46.9 12.0 47.0 11.7 47.0 11.3V11.2C47.0 10.8 46.9 10.4 46.7 10.1C46.5 9.8 46.2 9.6 45.8 9.4C45.4 9.2 44.9 9.1 44.3 9.1C43.7 9.1 43.2 9.2 42.8 9.4C42.4 9.6 42.1 9.8 41.9 10.1C41.7 10.4 41.6 10.7 41.5 11.0L39.7 10.7C39.9 10.0 40.2 9.4 40.6 8.9C41.0 8.4 41.5 8.1 42.1 7.9C42.7 7.7 43.4 7.6 44.2 7.6C44.7 7.6 45.2 7.7 45.7 7.8C46.2 7.9 46.7 8.1 47.1 8.4C47.5 8.7 47.8 9.1 48.0 9.6C48.2 10.1 48.3 10.7 48.3 11.4V19.3H46.5V17.8H46.4C46.3 18.1 46.1 18.4 45.8 18.6C45.5 18.8 45.1 19.0 44.6 19.1C44.1 19.3 43.5 19.4 42.8 19.4L42.5 19.5ZM42.8 17.8C43.5 17.8 44.1 17.7 44.5 17.4C44.9 17.1 45.2 16.8 45.4 16.4C45.6 16.0 45.7 15.5 45.7 15.0V13.5C45.6 13.6 45.5 13.6 45.3 13.7C45.1 13.8 44.8 13.8 44.5 13.9C44.2 13.9 43.9 14.0 43.6 14.0C43.3 14.1 43.0 14.1 42.8 14.1C42.4 14.2 42.0 14.3 41.7 14.4C41.4 14.5 41.1 14.7 40.9 14.9C40.7 15.1 40.6 15.4 40.6 15.8C40.6 16.2 40.7 16.5 40.9 16.7C41.1 16.9 41.4 17.1 41.7 17.2C42.0 17.3 42.4 17.4 42.8 17.4V17.8Z" fill="#6366F1"/>
<path d="M53.2 19.5C52.1 19.5 51.2 19.3 50.4 18.8C49.6 18.3 49.0 17.6 48.6 16.7C48.2 15.8 48.0 14.8 48.0 13.6C48.0 12.4 48.2 11.4 48.6 10.5C49.0 9.6 49.6 8.9 50.4 8.4C51.2 7.9 52.1 7.7 53.2 7.7C54.3 7.7 55.2 7.9 56.0 8.4C56.8 8.9 57.4 9.6 57.8 10.5C58.2 11.4 58.4 12.4 58.4 13.6C58.4 14.8 58.2 15.8 57.8 16.7C57.4 17.6 56.8 18.3 56.0 18.8C55.2 19.3 54.3 19.5 53.2 19.5ZM53.2 17.8C53.9 17.8 54.5 17.6 54.9 17.2C55.3 16.8 55.6 16.3 55.8 15.7C56.0 15.1 56.1 14.4 56.1 13.6C56.1 12.8 56.0 12.1 55.8 11.5C55.6 10.9 55.3 10.4 54.9 10.0C54.5 9.6 53.9 9.4 53.2 9.4C52.5 9.4 51.9 9.6 51.5 10.0C51.1 10.4 50.8 10.9 50.6 11.5C50.4 12.1 50.3 12.8 50.3 13.6C50.3 14.4 50.4 15.1 50.6 15.7C50.8 16.3 51.1 16.8 51.5 17.2C51.9 17.6 52.5 17.8 53.2 17.8Z" fill="#6366F1"/>
<path d="M62.5 19.3V8.0H64.3V9.8H64.4C64.6 9.2 65.0 8.7 65.5 8.4C66.0 8.1 66.6 7.9 67.3 7.9C67.4 7.9 67.6 7.9 67.8 7.9C67.9 7.9 68.0 7.9 68.1 7.9V9.7C68.0 9.7 67.9 9.7 67.7 9.6C67.5 9.6 67.3 9.6 67.0 9.6C66.5 9.6 66.1 9.7 65.7 9.9C65.3 10.1 65.0 10.4 64.8 10.8C64.6 11.2 64.5 11.7 64.5 12.3V19.3H62.5Z" fill="#6366F1"/>
<path d="M69.5 19.3V8.0H71.3V19.3H69.5ZM70.4 6.0C70.1 6.0 69.8 5.9 69.6 5.7C69.4 5.5 69.3 5.2 69.3 4.9C69.3 4.6 69.4 4.3 69.6 4.1C69.8 3.9 70.1 3.8 70.4 3.8C70.7 3.8 71.0 3.9 71.2 4.1C71.4 4.3 71.5 4.6 71.5 4.9C71.5 5.2 71.4 5.5 71.2 5.7C71.0 5.9 70.7 6.0 70.4 6.0Z" fill="#6366F1"/>
<path d="M76.5 19.5C75.8 19.5 75.2 19.4 74.7 19.1C74.2 18.8 73.8 18.4 73.5 17.9C73.2 17.4 73.1 16.8 73.1 16.1C73.1 15.5 73.2 15.0 73.5 14.6C73.8 14.2 74.2 13.9 74.7 13.7C75.2 13.5 75.7 13.3 76.3 13.2C76.9 13.1 77.5 13.0 78.1 12.9C78.8 12.8 79.4 12.7 79.8 12.6C80.2 12.5 80.5 12.4 80.7 12.2C80.9 12.0 81.0 11.7 81.0 11.3V11.2C81.0 10.8 80.9 10.4 80.7 10.1C80.5 9.8 80.2 9.6 79.8 9.4C79.4 9.2 78.9 9.1 78.3 9.1C77.7 9.1 77.2 9.2 76.8 9.4C76.4 9.6 76.1 9.8 75.9 10.1C75.7 10.4 75.6 10.7 75.5 11.0L73.7 10.7C73.9 10.0 74.2 9.4 74.6 8.9C75.0 8.4 75.5 8.1 76.1 7.9C76.7 7.7 77.4 7.6 78.2 7.6C78.7 7.6 79.2 7.7 79.7 7.8C80.2 7.9 80.7 8.1 81.1 8.4C81.5 8.7 81.8 9.1 82.0 9.6C82.2 10.1 82.3 10.7 82.3 11.4V19.3H80.5V17.8H80.4C80.3 18.1 80.1 18.4 79.8 18.6C79.5 18.8 79.1 19.0 78.6 19.1C78.1 19.3 77.5 19.4 76.8 19.4L76.5 19.5ZM76.8 17.8C77.5 17.8 78.1 17.7 78.5 17.4C78.9 17.1 79.2 16.8 79.4 16.4C79.6 16.0 79.7 15.5 79.7 15.0V13.5C79.6 13.6 79.5 13.6 79.3 13.7C79.1 13.8 78.8 13.8 78.5 13.9C78.2 13.9 77.9 14.0 77.6 14.0C77.3 14.1 77.0 14.1 76.8 14.1C76.4 14.2 76.0 14.3 75.7 14.4C75.4 14.5 75.1 14.7 74.9 14.9C74.7 15.1 74.6 15.4 74.6 15.8C74.6 16.2 74.7 16.5 74.9 16.7C75.1 16.9 75.4 17.1 75.7 17.2C76.0 17.3 76.4 17.4 76.8 17.4V17.8Z" fill="#6366F1"/>
<defs>
<linearGradient id="paint0_linear_sofia_light" x1="3.77557" y1="5.91571" x2="5.23185" y2="21.5589" gradientUnits="userSpaceOnUse">
<stop stop-color="#8B5CF6"/>
<stop offset="1" stop-color="#6366F1"/>
</linearGradient>
<linearGradient id="paint1_linear_sofia_light" x1="12.1711" y1="-0.718425" x2="10.1897" y2="22.9832" gradientUnits="userSpaceOnUse">
<stop stop-color="#6366F1"/>
<stop offset="1" stop-color="#8B5CF6"/>
</linearGradient>
<linearGradient id="paint2_linear_sofia_light" x1="23.1327" y1="15.353" x2="9.33841" y2="18.5196" gradientUnits="userSpaceOnUse">
<stop stop-color="#8B5CF6"/>
<stop offset="1" stop-color="#4F46E5"/>
</linearGradient>
</defs>
</svg>
